<svg xmlns="http://www.w3.org/2000/svg" xmlns:xlink="http://www.w3.org/1999/xlink" viewBox="0 0 1920 480"><defs><style>.cls-1,.cls-4,.cls-5,.cls-6{fill:none;}.cls-2{clip-path:url(#clip-path);}.cls-3{fill:#fff;}.cls-4,.cls-5,.cls-6{stroke:#169220;stroke-miterlimit:10;}.cls-4{stroke-width:3px;}.cls-6{stroke-width:0.75px;}</style><clipPath id="clip-path"><rect class="cls-1" width="1920" height="480"/></clipPath></defs><g id="Layer_2" data-name="Layer 2"><g class="cls-2"><rect class="cls-3" width="1920" height="480"/><path class="cls-4" d="M310.65-12c-14.87,7.8-23,24.69-25.56,41.29s-.63,33.52-.75,50.32A204.18,204.18,0,0,1,279.13,124c-1.41,6.13-3.15,12.3-6.49,17.64-7.41,11.85-21.45,17.76-35,21.1s-27.82,4.91-40.28,11.27c-16.71,8.51-28.2,24.61-37.07,41.13s-15.87,34.17-27,49.29-27.45,27.81-46.18,28.75c-17.41.86-33.53-8.34-50.36-12.86a96.48,96.48,0,0,0-70.59,8.47"/><path class="cls-4" d="M413.89-14.72c-39.8,52.66-31.39,129.46-67.63,184.63-19.3,29.39-49.43,49.72-79.51,67.92-23.55,14.25-48.35,28.4-64.22,50.88-12.14,17.19-18,37.86-24.79,57.79-10.94,32.28-26,65.27-53.82,84.9C92,453.92,50,454.33,12.13,464c-10.18,2.59-21.17,6.68-26,16"/><path class="cls-4" d="M168.16-28.88c-28.58,15.58-43,48.62-49.73,80.47s-8,65.12-19.76,95.46c-12.33,31.74-35.41,58.08-59.92,81.73-19.08,18.41-42.21,36.71-68.7,35.36"/><path class="cls-5" d="M139.53-26.41c-2.54.53-4.27,2.82-5.71,5C109,15.5,98.67,60,88.87,103.38,85.41,118.71,82,134.12,76.3,148.79,59.44,192.61,22.46,228.23-22,243.44"/><path class="cls-5" d="M118.59-28.06c-2.39.53-4.1,2.53-5.58,4.41A153.77,153.77,0,0,0,101.27-6.42a128.65,128.65,0,0,0-11.61,25.9c-1.14,3.6-2.1,7.23-3.26,10.87-2.21,6.92-5,13.43-7.45,20A355,355,0,0,0,67,91c-2,8.16-3.78,16.39-5.83,24.5-1.57,6.23-3.29,12.41-5.33,18.47a156.64,156.64,0,0,1-22,42.71,146,146,0,0,1-65.26,50"/><path class="cls-5" d="M97.65-29.7c-2.24.53-3.94,2.22-5.45,3.84A121,121,0,0,0,80.14-10.78,79.42,79.42,0,0,0,69.08,13.36c-.87,3.41-1.44,6.85-2.49,10.28-2,6.54-5.39,12.15-8.26,17.91-5.66,11.32-9.85,24.08-13.2,37.12-2,7.64-3.64,15.42-5.39,23.06-1.33,5.88-2.73,11.73-4.37,17.48a155.26,155.26,0,0,1-17.91,41,129.89,129.89,0,0,1-58.38,49.69"/><path class="cls-5" d="M76.71-31.34a13.19,13.19,0,0,0-5.31,3.28A91.94,91.94,0,0,0,59-15.14C54-8.66,50-.84,48.5,7.23c-.59,3.23-.79,6.48-1.72,9.71C45,23.09,41,27.79,37.71,32.71,31.22,42.38,26.62,54.1,23.26,66.32c-2,7.12-3.51,14.43-4.94,21.61-1.11,5.54-2.18,11-3.41,16.5-3.12,13.79-7.3,27-13.81,39.31a114.59,114.59,0,0,1-51.49,49.4"/><path class="cls-5" d="M55.77-33a17.08,17.08,0,0,0-5.18,2.71A72.24,72.24,0,0,0,37.88-19.49c-5.12,5.65-9.16,13-10,20.59-.32,3.05-.13,6.11-1,9.13C25.4,16,20.8,19.8,17.09,23.88,9.77,31.89,4.76,42.58,1.39,54a172.7,172.7,0,0,0-4.5,20.16C-4,79.32-4.73,84.5-5.56,89.64c-2.09,13-4.69,25.68-9.7,37.61a100.41,100.41,0,0,1-44.61,49.12"/><path class="cls-5" d="M34.83-34.62a28.57,28.57,0,0,0-5,2.14,58,58,0,0,0-13,8.63C11.51-19,7.45-12.16,7.34-5c0,2.85.52,5.73-.19,8.55C5.8,8.91.6,11.81-3.52,15c-8.16,6.36-13.57,16-17,26.57a107.56,107.56,0,0,0-4.06,18.71C-25.17,65.17-25.6,70-26,74.86c-1.07,12.23-2.08,24.31-5.59,35.9A87.78,87.78,0,0,1-69.34,159.6"/><path class="cls-5" d="M13.9-36.27C7.51-34.27,1-32.2-4.38-28.2s-9.43,10.38-8.86,17c.23,2.67,1.18,5.36.58,8-1.14,5-6.94,7-11.48,9.38C-38.27,13.61-44.56,30.63-46,46.52s.8,32-2,47.76a76.63,76.63,0,0,1-30.85,48.55"/><path class="cls-5" d="M167.14-3.6c-19.91,12.37-30.07,35.94-34.55,59s-4.52,46.8-10.17,69.55A144.83,144.83,0,0,1,102.56,170c-14.91,22.42-36,40.58-48.43,64.46-5.38,10.34-8.69,23.82-1.51,33,7.64,9.78,22.83,9,34.4,4.53,27.48-10.71,46.52-36,60.29-62.12,8.54-16.18,16.28-33.9,31.25-44.44,23.27-16.37,59.05-11.7,77.09-33.71,11.48-14,11.29-33.84,12.1-51.95A316.27,316.27,0,0,1,275,24.88c2.58-11.6,5.87-23.19,11.72-33.55"/><path class="cls-5" d="M92.2,204c-6.75,6.73-14.19,12.8-20.2,20.2s-10.57,16.5-10.25,26a12.86,12.86,0,0,0,1.65,6.46c3.36,5.33,11.25,5.12,17.2,3.07,16.22-5.57,28.22-19.41,37.16-34,8.41-13.74,14.84-28.62,24-41.91,5.8-8.41,14.3-17.05,2-24-9.61-5.43-18.49-1.93-24.16,6.55C110.79,179.58,103.62,192.62,92.2,204Z"/><path class="cls-5" d="M149.62,44.38c-6.81,18.25-9,37.94-9.13,57.42-.09,11.86,1.4,25.44,11,32.35,5.29,3.8,12.06,4.77,18.56,5.22A159.49,159.49,0,0,0,227,133c4.67-1.4,9.45-3.14,12.86-6.62,4.86-5,5.94-12.44,6.58-19.37,2-21.45,2.15-43.27,8-64,3-10.57,7.51-20.87,8.27-31.83.38-5.56-.39-11.58-4.07-15.76s-9.6-5.72-15.18-6.32c-18.17-2-43.14,2.06-59.61,10.52S155.82,27.78,149.62,44.38Z"/><path class="cls-5" d="M245.85,8.35C242.57,5.47,238.06,4.26,233.6,4c-14.5-.93-34,3.11-46.92,10.54s-22,23.38-26.82,36.66c-5.16,14.15-6.86,29.38-6.94,44.45,0,9.17,1.2,19.53,8.45,25.08,4.15,3.19,9.43,4.33,14.62,4.94a97.3,97.3,0,0,0,12.22.64,102.31,102.31,0,0,0,33.53-6.3c3.67-1.32,7.38-2.92,10-5.81,3.73-4,4.64-9.9,5.19-15.39,1.7-17,1.83-34.33,6.93-50.58,2.83-9,7-18.62,6.94-27.71C250.81,15.94,249.45,11.5,245.85,8.35Z"/><path class="cls-5" d="M233.06,21.29a17.94,17.94,0,0,0-9.33-2.42C212.9,19,198.89,23,189.5,29.44S173.58,48,170.11,58s-4.76,20.82-4.76,31.48c0,6.49,1,13.65,5.85,17.81a22.9,22.9,0,0,0,10.7,4.66,52.82,52.82,0,0,0,9.29,1A58.87,58.87,0,0,0,216.51,107a20.28,20.28,0,0,0,7.24-5c2.6-3.09,3.33-7.36,3.8-11.41,1.44-12.53,1.58-25.39,5.83-37.19C236,46,239.9,37.06,239,29.84,238.53,26.27,236.7,23.45,233.06,21.29Z"/><path class="cls-5" d="M220.26,34.23a11.24,11.24,0,0,0-6.4-.47,45.11,45.11,0,0,0-21.54,10.59c-5.83,5.37-9.87,13.8-12,20.43a59.07,59.07,0,0,0-2.58,18.5c0,3.81.75,7.85,3.27,10.55a16.83,16.83,0,0,0,6.76,4.38,23.26,23.26,0,0,0,6.38,1.29c6.26.34,12.16-2.09,17.09-5.5a16.93,16.93,0,0,0,4.44-4.17,17.21,17.21,0,0,0,2.41-7.43c1.18-8.06,1.47-16.4,4.72-23.79,2.55-5.81,6.06-14.08,4.28-19.44C226.27,36.61,224.29,34.57,220.26,34.23Z"/><path class="cls-5" d="M190.59,71.58a17,17,0,0,0,.29,8.81,8.49,8.49,0,0,0,6.29,5.71c4.82.77,8.88-3.84,10.5-8.44s2-9.75,4.63-13.84c3.89-6,8.44-19.64-4.84-16.65C198.76,49.13,192.06,63.84,190.59,71.58Z"/><path class="cls-5" d="M-20.14,337c31.12,14,67.37-1.2,101.32,2.2,9.33.94,19.47,4,24.32,12,6.16,10.22,1,23.45-5.5,33.42-3.48,5.3-7.46,10.44-12.75,13.94-6.42,4.26-14.22,5.78-21.79,7.2l-70.8,13.31c-9,1.69-18.62,3.7-25,10.27"/><path class="cls-5" d="M-10.21,355.57l74.91-1c6.33-.08,13.36.1,17.93,4.48,6,5.71,4.42,16.23-1.14,22.33s-13.86,8.79-21.85,10.87a178.09,178.09,0,0,1-31.39,5.53c-13.31,1-27.62.23-38.87,7.41"/><path class="cls-5" d="M-10.24,367.8c18,1.63,36.31-.9,54.18,1.89a15.07,15.07,0,0,1,6.45,2.13c1.88,1.3,3.2,3.66,2.64,5.87-.79,3.13-4.55,4.31-7.73,4.81-18.73,2.94-38.23.91-56.44,6.19"/><path class="cls-5" d="M-30.5,301c16.48-6.89,35.24-5.26,52.77-1.78s34.91,8.71,52.78,8.68c30.22,0,59.94-16.34,76.21-41.8,9.74-15.24,14.88-33.32,26.31-47.33,14.93-18.3,38.24-27,60.17-35.8s44.91-19.46,57.11-39.68c8.42-13.94,10.56-30.64,12.93-46.75q4.07-27.64,9.75-55c3.9-18.8,9.89-39.59,26.63-49"/><path class="cls-5" d="M-23.91,318.34A534.5,534.5,0,0,0,104.43,320c10.36-1.12,20.94-2.63,30.11-7.56,12.46-6.71,20.84-18.9,28.73-30.64L183,252.42c7.58-11.27,15.34-22.74,26-31.17,14-11.06,31.71-16,47.59-24.05a130.09,130.09,0,0,0,54-51.8C337.1,98.28,333.45,36.1,369.14-4.51"/><path class="cls-5" d="M391.89-5.66c-24.24,21.85-24.7,59.16-33.51,88.36-9.81,32.53-23.93,65.24-45,92.56-22.58,29.21-53.08,40.89-82.85,60.23-31.21,20.27-53.42,50.61-71,82.89-16.72,30.7-26.32,74.05-55.81,94.86C64.88,440.62,9.12,429.88-31.48,454.53"/><path class="cls-4" d="M1512.93-235.95c27.92,11.31,56.21,31.21,68.25,59.82,18.39,43.7-19.56,84-29.57,124.66-17.54,71.15,32.49,115,80.52,157.8,55.07,49.05-10.1,103.45-40.61,143.16-73.76,96,29,203.36,126.77,214.67,64.51,7.45,126.79-14.25,191.12-7.74A232.45,232.45,0,0,1,2036.58,511c8.93,7.68,18,18.81,14.29,30"/><path class="cls-6" d="M2080.36,277.06c-25.81,30.24-61.13,51.41-101.57,52.77-51,1.72-86.58-8.07-129.9,25.24-43.6,33.54-77.54,76.48-138.3,72.68-56.68-3.54-117.48-52.05-110.46-113.36,6.68-58.26,60.29-94.61,89.1-141.53,13.29-21.63,19.76-47.81,7.1-71.33-18.43-34.25-61.84-42.62-84.62-72.81C1588.59-1.93,1582.91-45.62,1588-82.7c5.21-38.1,29.58-67.36,70.47-62.07,68.14,8.82,132.29,43.06,191.06,76.8,63.07,36.2,119.51,80.73,172.61,130.18,29.68,27.64,64.58,54,81.51,92.06,17.1,38.45,6.95,83.48-18,116.22Q2083.14,273.8,2080.36,277.06Z"/><path class="cls-6" d="M1614.15-64.93c5.26-34.32,27.66-60.55,64.78-55.88,62,7.77,120.64,38.81,174,69.69q6.51,3.76,12.91,7.67A718.29,718.29,0,0,1,1950.22,17c19.86,16.49,38.82,33.78,57.22,51.73,26,25.37,56.28,49.62,71.16,84.19s5.91,75.06-16.39,104.65q-2.25,3-4.74,5.93c-23.07,27.31-54.62,46.56-90.77,48.16-45.56,2-77.53-6.31-116.5,23.54-39.59,30.24-70.53,68.25-125.09,64.41-51-3.65-105.36-47.64-99-103,6.1-52.9,53.89-86.37,79.3-129.16,11.72-19.72,17.31-43.46,5.81-64.81-8.18-15.16-21.68-24.82-35.82-33.92s-29.1-17.72-39.59-30.87c-.43-.54-.85-1.08-1.26-1.63C1613.67,8.22,1609-31.5,1614.15-64.93Z"/><path class="cls-6" d="M1640.32-47.15c5.31-30.55,25.75-53.75,59.09-49.7,55.94,6.72,109,34.56,156.92,62.58q5.85,3.44,11.6,7a585.54,585.54,0,0,1,75.2,55.24c17.45,15.16,33.84,31,49.63,47.28,22.29,23.09,48,45.2,60.82,76.3,12.72,30.81,4.86,66.65-14.82,93.08-1.32,1.78-2.72,3.54-4.18,5.29-20.34,24.39-48.11,41.72-80,43.55-40.14,2.28-68.49-4.54-103.1,21.85-35.57,26.95-63.51,60-111.88,56.15-45.27-3.77-93.23-43.24-87.5-92.72,5.52-47.55,47.49-78.15,69.5-116.8,10.16-17.81,14.87-39.12,4.51-58.28C1718.79,90,1706.72,81.25,1694,73s-26.11-16-35.49-27.92c-.38-.49-.75-1-1.12-1.47C1638.76,18.37,1635.12-17.39,1640.32-47.15Z"/><path class="cls-6" d="M1666.49-29.37c5.36-26.78,23.83-46.94,53.4-43.52,49.84,5.68,97.34,30.31,139.85,55.47q5.19,3.09,10.29,6.28a463.49,463.49,0,0,1,66,50c15,13.83,28.86,28.11,42,42.82,18.6,20.82,39.68,40.79,50.47,68.42,10.54,27,3.82,58.25-13.24,81.51-1.14,1.56-2.35,3.12-3.62,4.66-17.6,21.45-41.6,36.87-69.17,38.93-34.73,2.56-59.38-2.68-89.7,20.16-31.49,23.73-56.51,51.91-98.67,47.88-39.58-3.78-81.11-38.83-76-82.4,4.95-42.18,41.09-69.92,59.7-104.44,8.59-15.89,12.42-34.76,3.21-51.75-6.52-12-17.16-20-28.38-27.37s-23.12-14.38-31.38-25c-.34-.43-.67-.87-1-1.31C1663.84,28.52,1661.22-3.27,1666.49-29.37Z"/><path class="cls-6" d="M1692.67-11.6c5.4-23,21.9-40.13,47.7-37.33,43.74,4.63,85.69,26.07,122.77,48.37q4.54,2.73,9,5.57A351.83,351.83,0,0,1,1929,49.86a447.16,447.16,0,0,1,34.45,38.37c14.91,18.54,31.39,36.35,40.13,60.54,8.36,23.14,2.76,49.83-11.66,69.93-1,1.35-2,2.7-3.06,4-14.87,18.52-35.11,32-58.38,34.32-29.31,2.83-50.32-.9-76.3,18.46-27.46,20.46-49.5,43.72-85.45,39.61-33.89-3.86-69-34.42-64.56-72.08,4.38-36.82,34.7-61.69,49.91-92.07,7-14,10-30.41,1.92-45.23-5.71-10.5-14.9-17.5-24.67-24.09s-20.13-12.7-27.28-22c-.29-.38-.58-.76-.85-1.15C1688.93,38.68,1687.33,10.85,1692.67-11.6Z"/><path class="cls-6" d="M1718.84,6.18c5.45-19.22,20-33.32,42-31.15,37.64,3.58,74,21.82,105.7,41.26q3.89,2.4,7.68,4.88c17.62,11.58,34,24.93,47.63,39.65a308.4,308.4,0,0,1,26.85,33.91c11.22,16.27,23.11,31.91,29.79,52.66,6.21,19.28,1.72,41.42-10.08,58.36-.8,1.14-1.63,2.28-2.5,3.4-12.14,15.59-28.6,27.17-47.58,29.7-23.9,3.12-41.26.89-62.9,16.77-23.43,17.18-42.5,35.52-72.24,31.35-28.19-4-56.88-30-53.08-61.77,3.81-31.45,28.3-53.45,40.11-79.7,5.46-12.07,7.53-26.06.62-38.71-4.88-8.94-12.64-15.06-21-20.81s-17.13-11-23.16-19.07c-.25-.32-.49-.66-.73-1C1714,48.83,1713.43,25,1718.84,6.18Z"/><path class="cls-6" d="M1745,24c5.54-15.44,18.07-26.48,36.32-25,31.54,2.61,62.39,17.57,88.63,34.15,2.15,1.37,4.28,2.77,6.36,4.19,14.59,9.93,28.08,21.55,38.45,34.45A192.76,192.76,0,0,1,1934,101.24c7.53,14,14.84,27.42,19.45,44.77,4.09,15.4.67,33-8.51,46.8-.62.92-1.26,1.84-1.94,2.76-9.4,12.66-22.08,22.35-36.78,25.08-18.47,3.44-32.2,2.68-49.5,15.08-19.4,13.9-35.49,27.32-59,23.08-22.5-4-44.76-25.61-41.6-51.45,3.23-26.09,21.91-45.22,30.31-67.34,3.89-10.15,5.09-21.71-.67-32.18-4.06-7.38-10.38-12.62-17.25-17.53s-14.14-9.36-19.06-16.12c-.2-.27-.4-.55-.59-.83C1739.1,59,1739.57,39.09,1745,24Z"/><path class="cls-6" d="M1771.18,41.73c5.59-11.65,16.15-19.67,30.63-18.78,25.44,1.56,50.75,13.32,71.56,27.05,1.71,1.13,3.4,2.3,5.05,3.48,11.56,8.3,22.11,18.19,29.26,29.26a106,106,0,0,1,11.67,25,255.65,255.65,0,0,1,9.1,36.9,51.55,51.55,0,0,1-6.93,35.22q-.66,1.06-1.38,2.13c-6.66,9.73-15.57,17.5-26,20.46-13.05,3.73-23.16,4.45-36.11,13.39-15.37,10.61-28.48,19.1-45.81,14.82-16.81-4.16-32.63-21.21-30.12-41.14,2.65-20.72,15.51-37,20.51-55,2.32-8.24,2.64-17.36-2-25.65-3.23-5.83-8.12-10.18-13.53-14.26s-11.15-7.69-15-13.16l-.45-.68C1764.18,69.13,1765.67,53.21,1771.18,41.73Z"/><path class="cls-6" d="M1797.35,59.51a29,29,0,0,1,24.94-12.6c19.34.5,39.1,9.08,54.48,19.94q1.93,1.37,3.75,2.79c8.52,6.65,16.13,14.83,20.07,24.06a53,53,0,0,1,4.08,20.55c.16,9.43-1.46,18.28-1.24,29a50.08,50.08,0,0,1-5.35,23.65c-.27.5-.54,1-.83,1.49-3.93,6.81-9,12.65-15.18,15.86-7.63,4-14.13,6.19-22.71,11.69-11.38,7.3-21.48,10.84-32.59,6.55s-20.52-16.8-18.66-30.82c2.09-15.36,9.12-28.76,10.72-42.6.76-6.33.2-13-3.26-19.13a39.62,39.62,0,0,0-9.82-11c-3.88-3.15-8.16-6-10.85-10.21l-.32-.52C1789.26,79.28,1791.77,67.33,1797.35,59.51Z"/><path class="cls-6" d="M1878.4,141.89c-4.13,10.89-6.17,28.18-17.73,34.17-15.52,8-28.91-6.61-26.56-22.22,2.66-17.66,4.4-37-9.74-50.54-2.4-2.29-5.16-4.34-6.75-7.26-3.41-6.29.12-14.53,5.9-18.75,17.38-12.68,44.3-5,59.1,8.5,5.48,5,10.11,11.49,10.88,18.87C1895,118.9,1883.11,129.48,1878.4,141.89Z"/><path class="cls-6" d="M2049.84,352.66a602.33,602.33,0,0,0-84.84-5.92c-45.36.1-92.68,8.32-127.34,40-4.37,4-8.42,8.49-10.94,13.84-19.16,40.69,52,38.36,73.15,37.92a214,214,0,0,1,58.44,6.55c29.83,7.8,57.84,22.9,85,37,18.55,9.61,36,18.34,57.61,15.14,38.06-5.62,79.44-54.57,74.05-94.45-3.93-29.15-46-34.38-68.75-39.64Q2078.32,356.67,2049.84,352.66Z"/><path class="cls-6" d="M1869.54,387.92c28.43-25.27,67-31.91,104.17-31.75a492.64,492.64,0,0,1,69.26,5.2q23.23,3.38,46,8.8c18.67,4.48,52.76,9,56.12,32.59,4.58,32.3-28.5,71.72-59.2,76.92a53.44,53.44,0,0,1-25.06-1.81c-7.91-2.42-15.5-6.25-23.31-10.24-22.58-11.58-45.84-23.86-70.55-30.21q-2.77-.72-5.57-1.33a209.67,209.67,0,0,0-42.71-4.48c-17.75-.16-75,.46-58.43-32.5C1862.46,394.78,1865.88,391.17,1869.54,387.92Z"/><path class="cls-6" d="M1901.41,389.07c22.19-18.84,52-23.89,81-23.47a384.57,384.57,0,0,1,53.67,4.47c12,1.85,23.93,4.21,35.65,7.13,14.64,3.65,40.7,7.44,43.49,25.55,3.78,24.72-21,54.63-44.34,59.37a41.68,41.68,0,0,1-20.18-.84c-6.45-1.86-12.62-4.94-19-8.11-18-9.05-36.45-18.52-56.06-23.42-1.46-.37-2.94-.71-4.41-1a218.82,218.82,0,0,0-33.69-4.05c-14.4-.76-57.53-1.81-43.72-27.08A31.6,31.6,0,0,1,1901.41,389.07Z"/><rect class="cls-1" x="1073" y="-355.38" width="816.79" height="1225.18" transform="translate(470.36 1370.09) rotate(-57.6)"/></g></g></svg>