<svg xmlns="http://www.w3.org/2000/svg" xmlns:xlink="http://www.w3.org/1999/xlink" viewBox="0 0 1440 1080"><defs><style>.cls-1,.cls-4,.cls-5,.cls-6{fill:none;}.cls-2{clip-path:url(#clip-path);}.cls-3{fill:#fff;}.cls-4,.cls-5,.cls-6{stroke:#169220;stroke-miterlimit:10;}.cls-4{stroke-width:3px;}.cls-6{stroke-width:0.75px;}.cls-7{fill:#169220;}</style><clipPath id="clip-path"><rect class="cls-1" width="1440" height="1080"/></clipPath></defs><g id="Layer_2" data-name="Layer 2"><g class="cls-2"><rect class="cls-3" width="1440" height="1080"/><path class="cls-4" d="M294.65-145.35c-14.87,7.8-23,24.69-25.56,41.29s-.63,33.52-.76,50.32a204.17,204.17,0,0,1-5.2,44.33c-1.41,6.14-3.15,12.3-6.49,17.64-7.41,11.86-21.45,17.76-35,21.1s-27.82,4.92-40.28,11.27c-16.71,8.51-28.2,24.61-37.07,41.13s-15.87,34.18-27,49.29-27.46,27.82-46.18,28.75c-17.41.87-33.53-8.34-50.37-12.86a96.45,96.45,0,0,0-70.59,8.48"/><path class="cls-4" d="M397.89-148.09c-39.8,52.66-31.4,129.46-67.63,184.64-19.3,29.38-49.44,49.71-79.52,67.91-23.54,14.25-48.34,28.4-64.21,50.88-12.14,17.19-18,37.87-24.79,57.79-11,32.29-26,65.27-53.82,84.9C75.94,320.56,34,321-3.87,330.59c-10.18,2.59-21.17,6.68-26.06,16"/><path class="cls-4" d="M152.16-162.25c-28.59,15.59-43,48.62-49.73,80.47s-8,65.12-19.76,95.46C70.34,45.42,47.26,71.77,22.75,95.41c-19.08,18.42-42.21,36.71-68.7,35.37"/><path class="cls-5" d="M123.52-159.78c-2.53.53-4.26,2.82-5.7,5C93-117.87,82.67-73.39,72.87-30,69.41-14.65,66,.75,60.3,15.42,43.43,59.25,6.45,94.87-38,110.08"/><path class="cls-5" d="M102.59-161.42c-2.39.53-4.11,2.52-5.58,4.4a153.77,153.77,0,0,0-11.74,17.23,128.48,128.48,0,0,0-11.61,25.91c-1.14,3.6-2.1,7.22-3.26,10.86-2.21,6.92-5,13.43-7.46,20A355,355,0,0,0,51-42.34c-2,8.16-3.78,16.39-5.83,24.5C43.6-11.6,41.88-5.43,39.83.63a156.33,156.33,0,0,1-22,42.71,146.07,146.07,0,0,1-65.26,50"/><path class="cls-5" d="M81.65-163.06c-2.24.52-3.94,2.22-5.45,3.84a119.23,119.23,0,0,0-12.06,15.07A79.42,79.42,0,0,0,53.08-120c-.87,3.41-1.44,6.85-2.49,10.29-2,6.53-5.39,12.14-8.26,17.91-5.66,11.31-9.85,24.07-13.2,37.12-1.95,7.64-3.65,15.41-5.39,23C22.4-25.75,21-19.91,19.37-14.15a155.67,155.67,0,0,1-17.91,41A129.89,129.89,0,0,1-56.92,76.54"/><path class="cls-5" d="M60.71-164.71a13.28,13.28,0,0,0-5.31,3.28A92.56,92.56,0,0,0,43-148.5c-5,6.47-9,14.29-10.51,22.36-.6,3.23-.79,6.48-1.73,9.71C29-110.28,25-105.57,21.71-100.65,15.22-91,10.62-79.27,7.26-67,5.31-59.93,3.75-52.62,2.31-45.44c-1.1,5.54-2.17,11-3.41,16.5-3.12,13.79-7.29,27-13.8,39.31a114.56,114.56,0,0,1-51.5,49.4"/><path class="cls-5" d="M39.77-166.35a17.19,17.19,0,0,0-5.18,2.71,72.3,72.3,0,0,0-12.71,10.78c-5.12,5.65-9.17,13-10,20.6-.32,3-.14,6.1-1,9.13-1.57,5.76-6.16,9.57-9.87,13.64-7.32,8-12.33,18.7-15.7,30.09a170.68,170.68,0,0,0-4.5,20.16C-20-54-20.73-48.87-21.56-43.72c-2.09,13-4.69,25.67-9.7,37.6A100.36,100.36,0,0,1-75.87,43"/><path class="cls-5" d="M18.83-168a29.34,29.34,0,0,0-5,2.14,57.75,57.75,0,0,0-13,8.64c-5.24,4.82-9.3,11.69-9.41,18.82-.05,2.86.52,5.73-.19,8.55-1.35,5.38-6.55,8.29-10.68,11.51-8.15,6.37-13.56,16-16.95,26.58A107.36,107.36,0,0,0-40.54-73c-.63,4.84-1.07,9.7-1.49,14.53-1.06,12.23-2.08,24.31-5.58,35.91A87.76,87.76,0,0,1-85.34,26.23"/><path class="cls-5" d="M151.14-137C131.22-124.6,121.07-101,116.58-78s-4.51,46.8-10.16,69.55A144.62,144.62,0,0,1,86.55,36.62C71.65,59,50.55,77.2,38.13,101.08c-5.38,10.35-8.69,23.83-1.52,33,7.65,9.79,22.84,9,34.41,4.53,27.47-10.71,46.52-36,60.28-62.11,8.55-16.19,16.29-33.91,31.26-44.44,23.26-16.38,59.05-11.71,77.08-33.71,11.49-14,11.3-33.85,12.1-51.95A317.13,317.13,0,0,1,259-108.48c2.58-11.61,5.87-23.2,11.71-33.56"/><path class="cls-5" d="M76.2,70.64C69.45,77.37,62,83.44,56,90.84s-10.58,16.5-10.25,26a12.85,12.85,0,0,0,1.65,6.45c3.35,5.34,11.24,5.13,17.2,3.08,16.22-5.57,28.22-19.42,37.16-34,8.4-13.75,14.84-28.63,24-41.91,5.81-8.42,14.31-17.06,2-24-9.61-5.43-18.5-1.93-24.16,6.55C94.79,46.22,87.62,59.26,76.2,70.64Z"/><path class="cls-5" d="M133.62-89c-6.81,18.25-9,37.94-9.13,57.42-.1,11.87,1.4,25.44,11,32.36,5.3,3.8,12.07,4.76,18.57,5.21A159.71,159.71,0,0,0,211-.38c4.67-1.41,9.45-3.14,12.86-6.63,4.86-5,5.94-12.44,6.58-19.37,2-21.44,2.14-43.27,8-64,3-10.57,7.51-20.88,8.26-31.84.39-5.56-.38-11.58-4.06-15.76s-9.6-5.72-15.18-6.32c-18.17-2-43.15,2.07-59.61,10.52S139.82-105.59,133.62-89Z"/><path class="cls-5" d="M-36.14,203.63c31.12,14,67.36-1.21,101.31,2.19,9.34.94,19.47,4,24.32,12C95.66,228,90.55,241.28,84,251.24c-3.49,5.3-7.47,10.44-12.75,13.94-6.42,4.26-14.22,5.78-21.8,7.2l-70.79,13.31c-9,1.69-18.62,3.7-25,10.28"/><path class="cls-5" d="M-26.21,222.2l74.91-1c6.33-.08,13.36.1,17.93,4.48,6,5.72,4.42,16.23-1.14,22.33s-13.86,8.79-21.85,10.87a177.18,177.18,0,0,1-31.39,5.53c-13.31,1-27.62.23-38.87,7.41"/><path class="cls-5" d="M-26.24,234.44c18,1.62,36.3-.9,54.18,1.88a15.25,15.25,0,0,1,6.45,2.13c1.88,1.3,3.2,3.66,2.64,5.88-.79,3.12-4.55,4.3-7.74,4.8-18.73,2.94-38.22.92-56.43,6.19"/><path class="cls-5" d="M-46.5,167.66c16.48-6.88,35.24-5.26,52.76-1.78s34.92,8.71,52.78,8.69c30.23,0,60-16.34,76.22-41.81,9.74-15.24,14.88-33.32,26.31-47.33,14.92-18.3,38.24-27,60.17-35.8S266.65,30.17,278.85,10C287.27-4,289.4-20.69,291.78-36.8q4.07-27.64,9.75-55c3.9-18.8,9.89-39.59,26.63-49"/><path class="cls-5" d="M-39.92,185a535.11,535.11,0,0,0,128.35,1.66c10.36-1.12,20.94-2.62,30.11-7.56,12.46-6.71,20.83-18.89,28.73-30.63L167,119.05c7.58-11.27,15.34-22.73,26-31.16,14-11.07,31.71-16,47.59-24.06a130,130,0,0,0,54-51.8c26.5-47.12,22.84-109.3,58.53-149.9"/><path class="cls-5" d="M375.89-139c-24.24,21.86-24.7,59.16-33.51,88.36-9.81,32.54-23.93,65.25-45,92.56-22.58,29.22-53.08,40.89-82.86,60.24-31.2,20.26-53.42,50.61-71,82.88-16.72,30.7-26.32,74.05-55.81,94.86C48.88,307.26-6.88,296.51-47.48,321.16"/><path class="cls-4" d="M1083.67-371.86c27.91,11.3,56.2,31.21,68.24,59.81,18.39,43.71-19.56,84-29.57,124.67-17.54,71.15,32.49,115,80.52,157.8,55.07,49.05-10.1,103.45-40.61,143.16-73.76,96,29,203.36,126.77,214.66,64.51,7.46,126.8-14.24,191.12-7.74a232.53,232.53,0,0,1,127.17,54.57c8.94,7.67,18,18.81,14.29,30"/><path class="cls-6" d="M1651.09,141.14c-25.81,30.24-61.13,51.42-101.57,52.78-51,1.71-86.58-8.08-129.89,25.24-43.61,33.54-77.55,76.47-138.31,72.68-56.68-3.55-117.48-52-110.45-113.36,6.67-58.27,60.28-94.61,89.1-141.53,13.28-21.63,19.75-47.82,7.09-71.33-18.43-34.26-61.84-42.62-84.62-72.81-23.12-30.66-28.8-74.34-23.73-111.43,5.21-38.1,29.58-67.36,70.47-62.06,68.15,8.81,132.29,43.05,191.06,76.79,63.07,36.2,119.52,80.73,172.61,130.19,29.68,27.64,64.58,54,81.51,92.06,17.11,38.45,7,83.47-18,116.22Q1653.87,137.88,1651.09,141.14Z"/><path class="cls-6" d="M1184.88-200.84c5.26-34.32,27.66-60.55,64.78-55.88,62,7.77,120.64,38.81,174,69.68q6.51,3.78,12.91,7.67A719.53,719.53,0,0,1,1521-118.93c19.86,16.49,38.82,33.78,57.22,51.73,26,25.37,56.28,49.61,71.16,84.18s5.91,75.07-16.39,104.65q-2.25,3-4.74,5.93c-23.07,27.31-54.62,46.57-90.77,48.16-45.56,2-77.53-6.3-116.5,23.55-39.59,30.24-70.52,68.25-125.09,64.41-51-3.65-105.36-47.64-99-103,6.1-52.9,53.89-86.38,79.31-129.16,11.72-19.72,17.3-43.47,5.8-64.81-8.18-15.16-21.68-24.83-35.82-33.92s-29.1-17.72-39.59-30.88q-.64-.8-1.26-1.62C1184.4-127.7,1179.74-167.42,1184.88-200.84Z"/><path class="cls-6" d="M1211.05-183.06c5.31-30.55,25.75-53.75,59.09-49.7,55.94,6.72,109,34.56,156.92,62.58q5.85,3.42,11.6,7a583.9,583.9,0,0,1,75.2,55.24c17.45,15.16,33.84,30.94,49.63,47.28,22.3,23.09,48,45.2,60.82,76.3,12.72,30.81,4.86,66.65-14.82,93.07-1.32,1.78-2.72,3.55-4.18,5.3-20.33,24.38-48.11,41.72-80,43.54-40.14,2.28-68.48-4.53-103.1,21.86-35.57,26.94-63.51,60-111.88,56.14-45.27-3.76-93.23-43.23-87.5-92.72,5.53-47.54,47.49-78.15,69.51-116.8,10.15-17.8,14.86-39.11,4.5-58.28-7.35-13.6-19.42-22.38-32.1-30.64s-26.11-16-35.49-27.93c-.38-.48-.75-1-1.12-1.46C1209.49-117.54,1205.85-153.3,1211.05-183.06Z"/><path class="cls-6" d="M1237.23-165.29c5.35-26.77,23.82-46.94,53.39-43.51,49.84,5.67,97.34,30.31,139.85,55.47q5.19,3.09,10.29,6.28a462.75,462.75,0,0,1,66,50c15,13.83,28.86,28.11,42,42.82,18.6,20.81,39.68,40.78,50.47,68.42,10.54,27,3.82,58.24-13.24,81.51-1.14,1.56-2.35,3.12-3.61,4.66-17.61,21.45-41.61,36.86-69.18,38.93-34.73,2.56-59.38-2.69-89.7,20.16-31.49,23.73-56.51,51.91-98.66,47.88-39.59-3.79-81.12-38.83-76-82.41,5-42.17,41.09-69.91,59.71-104.43,8.58-15.89,12.41-34.76,3.21-51.76-6.53-12-17.16-19.94-28.39-27.36S1260.27-73,1252-83.56c-.34-.44-.67-.87-1-1.31C1234.57-107.39,1232-139.18,1237.23-165.29Z"/><path class="cls-6" d="M1263.4-147.51c5.4-23,21.9-40.13,47.7-37.33,43.74,4.62,85.69,26.06,122.78,48.36q4.53,2.74,9,5.58A350.73,350.73,0,0,1,1499.68-86a445.49,445.49,0,0,1,34.45,38.37c14.91,18.53,31.39,36.35,40.13,60.53,8.36,23.14,2.77,49.84-11.66,69.94q-1.45,2-3.06,4c-14.87,18.52-35.1,32-58.38,34.31-29.31,2.84-50.31-.89-76.3,18.47-27.46,20.45-49.5,43.71-85.45,39.61-33.89-3.87-69-34.42-64.55-72.09,4.37-36.81,34.69-61.68,49.91-92.06,7-14,10-30.41,1.91-45.23-5.71-10.5-14.9-17.51-24.67-24.09s-20.13-12.71-27.28-22c-.29-.38-.57-.77-.85-1.15C1259.66-97.24,1258.06-125.07,1263.4-147.51Z"/><path class="cls-6" d="M1289.57-129.73c5.46-19.23,20-33.33,42-31.15,37.64,3.58,74.05,21.82,105.7,41.26q3.88,2.39,7.68,4.88c17.62,11.57,34,24.92,47.63,39.65a306.64,306.64,0,0,1,26.86,33.91c11.21,16.26,23.1,31.9,29.78,52.66,6.21,19.28,1.72,41.42-10.08,58.36-.79,1.14-1.63,2.27-2.5,3.4-12.14,15.59-28.59,27.16-47.58,29.69-23.9,3.12-41.25.9-62.9,16.78-23.43,17.18-42.5,35.52-72.24,31.34-28.19-4-56.88-30-53.08-61.77,3.81-31.45,28.31-53.45,40.12-79.7,5.45-12.06,7.52-26.06.61-38.7-4.88-8.94-12.63-15.06-20.95-20.81S1303.49-61,1297.46-69c-.25-.33-.49-.66-.73-1C1284.74-87.09,1284.16-110.95,1289.57-129.73Z"/><path class="cls-6" d="M1315.74-112c5.54-15.43,18.07-26.47,36.32-25,31.54,2.6,62.4,17.57,88.63,34.15q3.24,2.05,6.37,4.18c14.59,9.94,28.07,21.55,38.44,34.46a192.28,192.28,0,0,1,19.26,29.46c7.53,14,14.84,27.41,19.45,44.77,4.09,15.39.67,33-8.51,46.79-.62.93-1.26,1.85-1.94,2.76-9.4,12.67-22.08,22.35-36.78,25.09-18.47,3.44-32.2,2.67-49.5,15.08-19.4,13.9-35.49,27.31-59,23.08-22.5-4.05-44.75-25.61-41.6-51.45,3.23-26.09,21.91-45.23,30.32-67.34,3.88-10.15,5.08-21.71-.68-32.18-4.06-7.38-10.38-12.62-17.25-17.53S1325.1-55,1320.18-61.72c-.2-.27-.4-.55-.59-.84C1309.83-76.93,1310.3-96.82,1315.74-112Z"/><path class="cls-6" d="M1341.91-94.18c5.59-11.66,16.15-19.67,30.63-18.78,25.44,1.56,50.75,13.32,71.56,27q2.58,1.71,5.05,3.49c11.56,8.29,22.11,18.19,29.26,29.26a106,106,0,0,1,11.67,25,255.83,255.83,0,0,1,9.1,36.89,51.53,51.53,0,0,1-6.93,35.22q-.66,1.08-1.38,2.13c-6.66,9.74-15.57,17.5-26,20.47-13.05,3.72-23.16,4.45-36.1,13.38C1413.41,90.54,1400.3,99,1383,94.74c-16.82-4.15-32.64-21.2-30.13-41.13,2.65-20.73,15.51-37,20.52-55,2.31-8.24,2.63-17.36-2-25.66-3.23-5.83-8.11-10.18-13.53-14.25s-11.15-7.69-14.95-13.17c-.16-.22-.31-.45-.46-.68C1334.91-66.78,1336.41-82.7,1341.91-94.18Z"/><path class="cls-6" d="M1368.08-76.4A29,29,0,0,1,1393-89c19.34.49,39.1,9.07,54.49,19.94q1.92,1.35,3.74,2.78c8.52,6.66,16.13,14.84,20.07,24.07a52.76,52.76,0,0,1,4.08,20.54c.16,9.44-1.45,18.28-1.24,29A50,50,0,0,1,1468.81,31c-.27.5-.54,1-.83,1.49-3.93,6.8-9,12.65-15.18,15.85-7.63,4-14.13,6.19-22.71,11.69-11.38,7.31-21.48,10.85-32.59,6.56s-20.52-16.8-18.65-30.82C1380.93,20.41,1388,7,1389.57-6.84c.75-6.32.19-13-3.27-19.13a39.59,39.59,0,0,0-9.82-11c-3.88-3.16-8.15-6-10.85-10.22-.11-.17-.22-.34-.32-.52C1360-56.63,1362.5-68.59,1368.08-76.4Z"/><path class="cls-6" d="M1449.14,6C1445,16.86,1443,34.16,1431.4,40.14c-15.52,8-28.91-6.61-26.56-22.21,2.67-17.67,4.41-37-9.74-50.54-2.4-2.3-5.16-4.35-6.75-7.27-3.4-6.29.12-14.53,5.9-18.75,17.38-12.67,44.3-5,59.1,8.51,5.48,5,10.11,11.49,10.89,18.87C1465.73-17,1453.84-6.44,1449.14,6Z"/><path class="cls-6" d="M1620.57,216.75a600.74,600.74,0,0,0-84.84-5.92c-45.36.1-92.68,8.32-127.34,40-4.36,4-8.42,8.49-10.94,13.85-19.16,40.68,52,38.35,73.15,37.92a214.34,214.34,0,0,1,58.44,6.54c29.83,7.81,57.84,22.9,85,37,18.55,9.61,36,18.33,57.61,15.14,38.06-5.62,79.44-54.57,74-94.45-3.93-29.15-46-34.38-68.75-39.64Q1649.05,220.77,1620.57,216.75Z"/><path class="cls-6" d="M1440.27,252c28.43-25.27,67-31.91,104.17-31.75a492.63,492.63,0,0,1,69.26,5.19q23.23,3.39,46,8.81c18.67,4.48,52.76,9,56.12,32.59,4.58,32.3-28.5,71.72-59.2,76.92a53.52,53.52,0,0,1-25.05-1.81c-7.92-2.42-15.51-6.26-23.32-10.24-22.58-11.58-45.84-23.86-70.55-30.22-1.85-.47-3.7-.91-5.57-1.32a209,209,0,0,0-42.7-4.48c-17.75-.16-75,.45-58.44-32.5C1433.19,258.87,1436.61,255.26,1440.27,252Z"/><rect class="cls-1" x="643.73" y="-491.29" width="816.79" height="1225.18" transform="translate(385.89 944.59) rotate(-57.6)"/><path class="cls-7" d="M1456.39,1112.3q4.93,2.61,10,4.73H1469a118.36,118.36,0,0,1-12.2-5.6c-41.88-22.18-81.44-72-75.13-116.93,3.5-25,18.79-49.12,32.29-70.43,1.85-2.94,3.68-5.83,5.45-8.67q2.94-4.74,5.87-9.48c13-21,26.44-42.7,41.75-62.48,12-15.53,26.1-29.55,39.72-43.11,6.5-6.48,13.23-13.17,19.71-20,1.32-1.39,2.76-2.91,4.23-4.53v-1.47c-1.72,2-3.44,3.76-5,5.39-6.43,6.77-13.15,13.46-19.65,19.93-13.64,13.58-27.75,27.62-39.8,43.2-15.34,19.84-28.79,41.56-41.8,62.57l-5.87,9.48c-1.77,2.84-3.6,5.72-5.45,8.66-13.55,21.39-28.91,45.65-32.43,70.83-3.89,27.66,9,52.84,20.58,69.08C1415.55,1083.5,1435.62,1101.31,1456.39,1112.3Z"/><path class="cls-7" d="M1220.54,1117c2-2.61,4-5.14,6-7.59s4.12-5,6.2-7.55c12.15-14.68,24.72-29.87,31-48.15,8.63-25.06-1.47-46.3-12.16-68.77l-1.52-3.2c-11.29-23.83-13.52-45.26-6.85-65.49,7-21.15,21.47-39.14,34.53-54.34,3.09-3.6,6.28-7.23,9.37-10.72,11.07-12.55,22.51-25.51,31.45-40.16,1.67-2.74,3.36-5.61,5-8.39,10-17.07,20.39-34.73,38.36-43,6.86-3.16,14.35-5,21.6-6.81,5-1.25,10.22-2.54,15.19-4.26,8.59-3,17-6.75,25.1-10.42,5.22-2.36,10.61-4.79,16-7,28-11.41,54.08-12.61,77.4-3.57a72.51,72.51,0,0,1,13.52,6.79v-1.15a72.42,72.42,0,0,0-13.17-6.55c-23.56-9.14-49.84-7.94-78.11,3.57-5.41,2.2-10.82,4.64-16,7-8.09,3.65-16.47,7.43-25,10.39-4.93,1.7-10.11,3-15.12,4.23-7.29,1.8-14.82,3.67-21.77,6.87-18.25,8.4-28.69,26.19-38.79,43.4-1.63,2.78-3.31,5.65-5,8.37-8.89,14.58-20.3,27.51-31.34,40-3.1,3.49-6.29,7.12-9.39,10.73-13.11,15.27-27.69,33.35-34.72,54.66-6.75,20.51-4.5,42.17,6.91,66.22l1.51,3.21c10.6,22.28,20.63,43.34,12.11,68-6.24,18.12-18.75,33.23-30.83,47.85-2.09,2.52-4.17,5-6.21,7.55s-4.32,5.39-6.48,8.21Z"/><path class="cls-7" d="M1250,1102.28c-3.85,4.83-7.74,9.72-11.47,14.75h4.87c3.16-4.17,6.41-8.26,9.63-12.31,4.32-5.44,8.8-11.06,12.92-16.73,14.8-20.33,33.21-45.62,25.21-72.84-3.34-11.34-9.69-21.4-15.83-31.12-8.14-12.9-15.84-25.07-17.38-40.24-4.5-44,32.51-78.52,62.25-106.26l2.4-2.23c18.27-17.06,35.23-31.8,57.78-39.58,9.92-3.41,20.54-5.13,30.8-6.79l6.18-1,2.51-.45c7.39-1.34,21.13-3.83,27.43.6a7.57,7.57,0,0,1,3.16,5.16c1.16,6.8-1.71,15.32-4.26,22.83-.61,1.8-1.19,3.49-1.69,5.11a337,337,0,0,1-12.22,33.07c-8.16,19.18-18.39,39.26-32.17,63.18-3.34,5.77-7.16,11.78-11.22,18.13-19.16,30.08-40.88,64.18-26.4,98.47,8.42,20,23.33,38.94,35.37,53.24a234.34,234.34,0,0,0,29.77,29.77h6.24a225,225,0,0,1-33.05-32.31c-11.86-14.08-26.53-32.75-34.76-52.24-13.67-32.38,7.46-65.55,26.12-94.82,4.06-6.39,7.91-12.43,11.28-18.28,13.87-24.06,24.16-44.26,32.4-63.59a346.56,346.56,0,0,0,12.36-33.46c.48-1.56,1-3.23,1.65-5,2.7-8,5.75-17,4.41-24.75a11.46,11.46,0,0,0-4.77-7.71c-7.62-5.36-21.84-2.78-30.34-1.24l-2.46.43c-2,.35-4.1.68-6.16,1-10.43,1.69-21.2,3.43-31.44,7-23.27,8-40.56,23.05-59.16,40.41l-2.4,2.23c-30.37,28.33-68.18,63.58-63.48,109.54,1.64,16.08,9.94,29.22,18,41.93,6,9.49,12.2,19.32,15.37,30.13,7.46,25.35-10.31,49.79-24.61,69.42C1258.76,1091.27,1254.32,1096.86,1250,1102.28Z"/><path class="cls-7" d="M1530.73,1108.25a142.22,142.22,0,0,1-16.88.6,116.62,116.62,0,0,1-63.38-20.08,134.81,134.81,0,0,1-42.25-47.09c-6.21-11.46-9.44-20.71-10.47-30-1.2-10.82-.52-23.28,1.72-31.77,4.27-16.14,14.51-32.17,23.55-46.3,1.62-2.53,3.22-5,4.76-7.49a479.71,479.71,0,0,1,43.38-59.1,398.1,398.1,0,0,1,49.36-48.19q5.06-4.1,10.21-7.83v-1.19c-3.64,2.61-7.26,5.36-10.81,8.26a398,398,0,0,0-49.49,48.31A478.85,478.85,0,0,0,1427,925.61c-1.54,2.45-3.14,4.95-4.76,7.48-9.07,14.19-19.36,30.28-23.67,46.59-2.27,8.58-3,21.19-1.74,32.11,1,9.43,4.3,18.78,10.57,30.35a135.61,135.61,0,0,0,42.57,47.44,117.6,117.6,0,0,0,63.91,20.25c1.11,0,2.22,0,3.33,0,4.6,0,9.12-.23,13.56-.64Z"/><path class="cls-7" d="M1530.73,1091.72c-1.63.17-3.26.32-4.89.42a106.9,106.9,0,0,1-58.57-12.92c-28.73-16-56.31-48.58-53.12-85.52,1.76-20.41,11.49-38.5,20.78-53.48a361,361,0,0,1,40.47-53.42,419.41,419.41,0,0,1,48.06-44.88c2.19-1.75,4.63-3.69,7.27-5.72V835c-2.87,2.2-5.52,4.31-7.88,6.18a420.44,420.44,0,0,0-48.17,45,361.31,361.31,0,0,0-40.58,53.56c-9.34,15.09-19.13,33.3-20.91,53.91-1.46,16.84,3.52,34.33,14.42,50.59a115.22,115.22,0,0,0,39.19,35.88,107,107,0,0,0,52.07,13.25c2.33,0,4.68-.07,7-.22,1.61-.09,3.22-.24,4.83-.4Z"/><path class="cls-7" d="M1530.73,1077.73l-.76.11c-18.11,2.18-37.43-1.67-54.37-10.82-31.43-17-49.65-47.79-46.45-78.52,3.63-34.72,29.21-64.26,52.89-89.22A455.62,455.62,0,0,1,1526.1,859c1.48-1.19,3-2.43,4.63-3.66v-1.25q-2.73,2.11-5.25,4.16a453.53,453.53,0,0,0-44.14,40.31c-23.8,25.09-49.49,54.77-53.15,89.8-3.25,31.12,15.17,62.31,46.94,79.49a95.09,95.09,0,0,0,44.81,11.53,87.92,87.92,0,0,0,10.15-.6l.64-.1Z"/><path class="cls-7" d="M1321.41,992.25h0c-7.06,0-13.56-3.88-19-7.68-15.83-11.08-27.53-30.22-29.82-48.76-1.56-29.75,18.35-59.06,59.17-87.18,13.44-9.25,27.93-17.81,42.85-17.81a35.9,35.9,0,0,1,9.95,1.38c16.8,4.81,20.87,22,19.26,35.23-4.86,40.06-31.37,76.71-56.66,107.29-5.63,6.81-12,14.46-20.84,16.87A18.6,18.6,0,0,1,1321.41,992.25Zm53.22-160.45c-14.65,0-29,8.48-42.3,17.64-40.53,27.92-60.3,56.93-58.75,86.28,2.26,18.24,13.8,37.12,29.41,48,5.29,3.7,11.62,7.5,18.42,7.5h0a18,18,0,0,0,4.68-.62c8.59-2.34,14.8-9.85,20.28-16.48,25.26-30.54,51.67-67.06,56.51-106.86,1.57-12.86-2.36-29.52-18.57-34.17A35,35,0,0,0,1374.63,831.8Z"/><path class="cls-7" d="M1321,949.75h0c-10.39,0-18-6.29-21.35-17.7-3.64-21.27,11.58-40.72,28.28-50.57,3.72-2.21,13.39-7.33,22.5-7.33,7.81,0,13.12,3.69,15.8,11,5.07,13.69-1.53,31.1-19.57,51.73C1339.74,944.8,1329.9,949.75,1321,949.75Zm29.43-74.62c-8.87,0-18.35,5-22,7.2-16.41,9.67-31.38,28.74-27.82,49.5,3.23,10.91,10.47,16.94,20.4,16.94,8.6,0,18.15-4.82,24.94-12.57,17.78-20.34,24.31-37.42,19.39-50.75C1362.83,878.6,1357.81,875.13,1350.46,875.13Z"/><path class="cls-7" d="M1262.94,1117c9-12.9,19-25.1,28.7-37l1.11-1.36c.8-1,1.6-2,2.43-3,8.76-10.82,19.65-24.31,33.86-25.11,16.36-.92,30.62,15.41,39.13,25.16,4.42,5.06,8.85,10.25,13.14,15.27,7.35,8.59,14.89,17.4,22.66,26h1.32c-8-8.76-15.71-17.81-23.24-26.62-4.29-5-8.73-10.2-13.15-15.26-8.63-9.89-23.08-26.46-39.92-25.49-14.63.82-25.68,14.48-34.56,25.46-.82,1-1.63,2-2.41,3l-1.11,1.36c-9.89,12-20,24.42-29.14,37.57Z"/><path class="cls-4" d="M-29.38,912.05c6.71,8.46,19.73,9,29.79,5.12s18.31-11.31,27.51-16.95c12.86-7.86,27.48-12.26,42-16.37,31-8.8,63.87-16.68,95.09-8.71,13.27,3.38,27.44,11.75,29.13,25.34.83,6.74-1.64,13.4-4.07,19.75Q182.86,939,175.7,957.66c-5.23,13.65-10.55,28.1-8.2,42.53,2.64,16.19,15.78,30.17,31.78,33.81,13,3,27.78-.14,38.82,7.28,9.44,6.34,13,18.59,13.47,30,.29,7.89-.79,16.28-5.64,22.51-4.46,5.75-12.36,11.24-10,18.13"/><path class="cls-5" d="M-18.69,880.09c-1.87,2.67,2.55,5.28,5.8,5.38,16,.5,31.29-5.56,46.32-11,46-16.47,96.37-27.38,143.45-14.41,11.05,3,22.13,7.62,29.88,16.07,12.9,14.06,13.67,35.64,9.11,54.17s-13.58,35.74-18,54.3c-1.19,5-2,10.43.14,15.1,1.64,3.59,4.83,6.24,8.22,8.27,15.2,9.11,35.14,7.78,49.89,17.63,12.1,8.08,18.65,22.6,20.43,37s-.58,29-2.95,43.38"/><path class="cls-5" d="M-31.49,943.35c5.72,2.83,12.36,3,18.75,2.87a58.17,58.17,0,0,0,14.25-1.45c8.34-2.2,15.37-7.65,22.47-12.55a211,211,0,0,1,90.14-35.09c9.88-1.38,19.95-4.34,29.94-2.74,10.54,1.7,20.92,8.77,23.27,19.18,1.94,8.6-1.78,17.33-5,25.54-8.39,21.4-13.85,44.84-9.29,67.38s21.07,43.74,43.6,48.32c5.59,1.14,11.48,1.29,16.61,3.76,8.81,4.23,13.4,14.79,12.6,24.53s-6.13,18.63-12.77,25.81"/><path class="cls-5" d="M49.19,942.37c-23,8.08-46.73,16.53-64.93,32.81-12.43,11.12-22,29.62-13.71,44.08a22.85,22.85,0,0,0,6.87,7.44c6.18,4.24,14.05,5.19,21.53,4.93,24.78-.83,47.5-13.19,69.16-25.23,16.49-9.17,33.17-18.78,47.06-31.69,10.51-9.77,28.28-29.75,25.58-45.73C136.11,901.61,62.2,937.81,49.19,942.37Z"/><path class="cls-5" d="M.34,982.12c-7.46,6.37-13.09,15.48-13.24,25.29a6.89,6.89,0,0,0,.74,3.68c1,1.59,2.93,2.26,4.77,2.64,8.17,1.68,16.68,0,24.61-2.65A98,98,0,0,0,50.1,992.94c5-4.27,9.83-9.84,9.75-16.42C59.7,963.69,45,961.33,35.54,964.79,23.28,969.24,10.42,973.5.34,982.12Z"/><path class="cls-5" d="M88.24,945.52c-4.74,3.21-8.58,8.26-8.91,14-.16,2.9.86,6.17,3.46,7.45a8.82,8.82,0,0,0,3.33.73,33.68,33.68,0,0,0,28.58-13.24c6.82-9.1,2.27-15.88-8.67-15.28A37,37,0,0,0,88.24,945.52Z"/><path class="cls-5" d="M-21.87,1046.06c18,4.42,36.86.45,54.53-4.94,19.3-5.9,38.27-13.61,54.76-25.25,7-4.92,13.67-10.63,21.85-13.07s18.49-.47,22.57,7c3.43,6.27,1.48,14.09,3.09,21,2.17,9.34,10.38,16,18.6,20.91a130.89,130.89,0,0,0,21.77,10.47c8.92,3.31,19.26,6.53,23.23,15.17,2.32,5,1.83,11.09-.51,16.11a32.62,32.62,0,0,1-10.85,12.37"/><path class="cls-5" d="M-24.42,1064c36.16,4.13,73-6.09,104.75-23.83,5.8-3.24,11.61-6.78,18.15-8s14.1.62,17.76,6.16c2.08,3.15,2.64,7,3.65,10.65,3,10.71,10.9,20.33,21.5,23.69,4.33,1.38,8.92,1.69,13.32,2.82s8.84,3.27,11.15,7.17c3.93,6.62.26,15.13-4.35,21.3"/><path class="cls-5" d="M-23,1086.64c32.85-2.6,66.65-5.67,96-20.72,3.83-2,7.62-4.16,11.81-5.16s9-.66,12.3,2.07c4.25,3.46,5.06,9.61,8.24,14.08,3.44,4.82,9.24,7.21,14.53,9.88,2.19,1.11,4.45,2.39,5.73,4.49a12,12,0,0,1,1.45,5.07,38.3,38.3,0,0,1,.06,8"/><rect class="cls-1" x="-11.16" y="595.25" width="750" height="500"/></g></g></svg>