<svg xmlns="http://www.w3.org/2000/svg" xmlns:xlink="http://www.w3.org/1999/xlink" viewBox="0 0 1440 480"><defs><style>.cls-1,.cls-4,.cls-5,.cls-6{fill:none;}.cls-2{clip-path:url(#clip-path);}.cls-3{fill:#fff;}.cls-4,.cls-5,.cls-6{stroke:#169220;stroke-miterlimit:10;}.cls-4{stroke-width:3px;}.cls-6{stroke-width:0.75px;}</style><clipPath id="clip-path"><rect class="cls-1" width="1440" height="480"/></clipPath></defs><g id="Layer_2" data-name="Layer 2"><g class="cls-2"><rect class="cls-3" width="1440" height="480"/><path class="cls-4" d="M302.85-5.55c-14.88,7.81-23,24.7-25.56,41.29s-.64,33.53-.76,50.32a204.72,204.72,0,0,1-5.2,44.33c-1.41,6.14-3.15,12.31-6.49,17.64-7.42,11.86-21.45,17.77-35,21.11S202,174.05,189.52,180.4c-16.7,8.52-28.19,24.62-37.06,41.14s-15.88,34.17-27,49.28S98,298.64,79.3,299.57c-17.41.87-33.52-8.33-50.36-12.86a96.49,96.49,0,0,0-70.59,8.48"/><path class="cls-4" d="M406.09-8.29c-39.8,52.67-31.4,129.46-67.63,184.64-19.3,29.39-49.44,49.71-79.52,67.92-23.54,14.25-48.34,28.39-64.22,50.88-12.13,17.19-18,37.86-24.78,57.79-10.95,32.28-26,65.27-53.82,84.9-32,22.52-73.88,22.93-111.79,32.56-10.19,2.58-21.18,6.67-26.06,16"/><path class="cls-4" d="M160.35-22.45c-28.58,15.59-43,48.62-49.72,80.47s-8,65.12-19.76,95.47C78.53,185.23,55.45,211.57,31,235.21c-19.09,18.42-42.21,36.72-68.7,35.37"/><path class="cls-5" d="M131.72-20c-2.53.54-4.26,2.82-5.71,5-24.79,37-35.15,81.43-44.94,124.83-3.46,15.33-6.93,30.73-12.57,45.4-16.87,43.83-53.85,79.45-98.28,94.66"/><path class="cls-5" d="M110.78-21.62c-2.38.53-4.1,2.52-5.57,4.41A154.65,154.65,0,0,0,93.46,0,129,129,0,0,0,81.85,25.92c-1.14,3.6-2.09,7.23-3.25,10.87-2.21,6.92-5,13.42-7.46,20A354.83,354.83,0,0,0,59.2,97.46c-2,8.16-3.78,16.4-5.83,24.51-1.58,6.23-3.29,12.4-5.34,18.47a156.27,156.27,0,0,1-22,42.7,146.05,146.05,0,0,1-65.26,50"/><path class="cls-5" d="M89.85-23.26c-2.24.52-3.94,2.22-5.45,3.84A118.62,118.62,0,0,0,72.34-4.34,79.39,79.39,0,0,0,61.27,19.79c-.86,3.42-1.44,6.86-2.49,10.29-2,6.54-5.39,12.14-8.26,17.91-5.65,11.32-9.85,24.07-13.19,37.12-2,7.64-3.65,15.41-5.39,23.06-1.34,5.88-2.74,11.73-4.37,17.48a155.43,155.43,0,0,1-17.92,41,129.71,129.71,0,0,1-58.38,49.68"/><path class="cls-5" d="M68.91-24.9a13.25,13.25,0,0,0-5.32,3.27A93.07,93.07,0,0,0,51.21-8.7c-5,6.48-9,14.3-10.52,22.37-.59,3.22-.78,6.48-1.72,9.71-1.78,6.15-5.78,10.85-9.06,15.77-6.49,9.67-11.09,21.39-14.45,33.61-2,7.12-3.51,14.43-5,21.6-1.1,5.54-2.18,11.06-3.41,16.51C4,124.65-.2,137.9-6.7,150.17a114.51,114.51,0,0,1-51.5,49.4"/><path class="cls-5" d="M48-26.55a17,17,0,0,0-5.18,2.72A71.88,71.88,0,0,0,30.08-13C25-7.4,20.91-.06,20.11,7.54c-.31,3-.13,6.11-.95,9.13C17.59,22.43,13,26.24,9.29,30.31,2,38.33-3,49-6.42,60.4a174.77,174.77,0,0,0-4.5,20.16c-.86,5.19-1.62,10.38-2.44,15.52-2.1,13-4.69,25.67-9.7,37.61A100.43,100.43,0,0,1-67.67,182.8"/><path class="cls-5" d="M27-28.19A28.72,28.72,0,0,0,22-26,57.27,57.27,0,0,0,9-17.41C3.71-12.58-.35-5.72-.47,1.41c0,2.86.53,5.74-.18,8.55C-2,15.34-7.21,18.25-11.33,21.47c-8.16,6.37-13.57,16-17,26.58a108.46,108.46,0,0,0-4.05,18.71c-.64,4.85-1.07,9.7-1.49,14.53-1.06,12.24-2.08,24.32-5.59,35.91A87.67,87.67,0,0,1-77.15,166"/><path class="cls-5" d="M6.09-29.83c-6.39,2-12.91,4.06-18.27,8.07S-21.62-11.38-21-4.71c.23,2.67,1.18,5.35.58,8-1.14,5-6.94,7-11.48,9.38C-46.07,20-52.36,37.07-53.77,53s.8,32.05-2,47.75a76.69,76.69,0,0,1-30.85,48.56"/><path class="cls-5" d="M159.34,2.84c-19.92,12.36-30.07,35.93-34.56,59s-4.52,46.79-10.17,69.55a144.31,144.31,0,0,1-19.86,45.08c-14.9,22.42-36,40.58-48.42,64.47-5.38,10.34-8.7,23.82-1.52,33,7.65,9.78,22.84,9,34.41,4.52,27.47-10.71,46.52-36,60.28-62.11,8.54-16.18,16.29-33.91,31.25-44.44,23.27-16.37,59.06-11.71,77.09-33.71,11.49-14,11.3-33.85,12.1-51.95a318.21,318.21,0,0,1,7.27-54.89c2.59-11.61,5.88-23.19,11.72-33.55"/><path class="cls-5" d="M84.39,210.45c-6.74,6.72-14.19,12.8-20.19,20.2s-10.58,16.5-10.25,26a12.86,12.86,0,0,0,1.64,6.46c3.36,5.33,11.25,5.12,17.21,3.07C89,260.63,101,246.79,110,232.16c8.4-13.74,14.84-28.62,24-41.91,5.81-8.41,14.31-17.06,2-24-9.61-5.42-18.5-1.93-24.16,6.56C103,186,95.81,199.06,84.39,210.45Z"/><path class="cls-5" d="M141.82,50.81c-6.82,18.26-9,38-9.13,57.43-.1,11.86,1.39,25.43,11,32.35,5.29,3.8,12.07,4.76,18.56,5.21a159.54,159.54,0,0,0,56.89-6.38c4.66-1.41,9.45-3.14,12.86-6.63,4.86-5,5.94-12.43,6.57-19.36,2-21.45,2.15-43.28,8.05-64,3-10.57,7.51-20.87,8.26-31.84.38-5.56-.38-11.57-4.07-15.75s-9.59-5.72-15.17-6.33c-18.18-2-43.15,2.07-59.61,10.52S148,34.21,141.82,50.81Z"/><path class="cls-5" d="M238.05,14.78c-3.28-2.87-7.79-4.09-12.25-4.37-14.51-.92-34,3.12-46.92,10.55s-22,23.38-26.82,36.65c-5.16,14.16-6.86,29.38-6.94,44.45-.06,9.18,1.19,19.54,8.44,25.09,4.15,3.18,9.44,4.33,14.63,4.93a95.29,95.29,0,0,0,12.21.65,102.47,102.47,0,0,0,33.53-6.3c3.67-1.33,7.39-2.92,10.06-5.81,3.72-4,4.63-9.9,5.18-15.39,1.71-17,1.83-34.34,6.94-50.59,2.82-9,7-18.61,6.94-27.7C243,22.37,241.64,17.94,238.05,14.78Z"/><path class="cls-5" d="M225.25,27.72a17.94,17.94,0,0,0-9.33-2.41c-10.83.13-24.83,4.16-34.22,10.56s-15.92,18.6-19.4,28.54-4.75,20.82-4.76,31.48c0,6.49,1,13.66,5.86,17.82a22.79,22.79,0,0,0,10.69,4.65,51,51,0,0,0,9.3,1,58.78,58.78,0,0,0,25.31-5.9,20.22,20.22,0,0,0,7.25-5c2.59-3.08,3.33-7.36,3.79-11.4,1.45-12.53,1.59-25.39,5.83-37.19,2.66-7.41,6.53-16.35,5.61-23.58C230.73,32.71,228.9,29.89,225.25,27.72Z"/><path class="cls-5" d="M212.45,40.66a11.22,11.22,0,0,0-6.4-.46,45,45,0,0,0-21.53,10.59c-5.84,5.36-9.87,13.8-12,20.42A59.09,59.09,0,0,0,170,89.72c0,3.8.75,7.85,3.27,10.54a16.83,16.83,0,0,0,6.76,4.38,22.83,22.83,0,0,0,6.38,1.3c6.25.33,12.15-2.09,17.09-5.5a17.26,17.26,0,0,0,4.44-4.17,17.33,17.33,0,0,0,2.4-7.43c1.18-8.07,1.48-16.4,4.72-23.79,2.56-5.81,6.07-14.08,4.28-19.44C218.46,43,216.49,41,212.45,40.66Z"/><path class="cls-5" d="M182.79,78a16.76,16.76,0,0,0,.29,8.81,8.5,8.5,0,0,0,6.29,5.72c4.82.76,8.87-3.84,10.5-8.45s2-9.74,4.63-13.84c3.88-6,8.43-19.64-4.84-16.65C191,55.56,184.25,70.28,182.79,78Z"/><path class="cls-5" d="M-27.94,343.43c31.12,14,67.36-1.21,101.31,2.2,9.34.93,19.47,4,24.32,12,6.17,10.21,1.06,23.45-5.5,33.42-3.48,5.3-7.46,10.43-12.74,13.94-6.42,4.26-14.22,5.77-21.8,7.2l-70.79,13.3c-9,1.7-18.62,3.71-25,10.28"/><path class="cls-5" d="M-18,362l74.92-1c6.32-.09,13.36.09,17.92,4.47,6,5.72,4.43,16.24-1.13,22.33s-13.87,8.8-21.86,10.87a178,178,0,0,1-31.38,5.54c-13.32,1-27.62.23-38.88,7.4"/><path class="cls-5" d="M-18,374.24c18,1.63,36.31-.9,54.18,1.89a15.28,15.28,0,0,1,6.46,2.12c1.87,1.31,3.2,3.66,2.64,5.88-.79,3.13-4.55,4.3-7.74,4.8-18.73,2.95-38.22.92-56.44,6.2"/><path class="cls-5" d="M-38.31,307.46c16.49-6.88,35.25-5.25,52.77-1.77s34.91,8.7,52.78,8.68c30.22,0,59.94-16.34,76.22-41.81,9.74-15.24,14.88-33.31,26.31-47.33,14.92-18.29,38.24-27,60.17-35.8s44.91-19.45,57.11-39.67C295.46,135.82,297.6,119.12,300,103q4.08-27.63,9.75-55c3.9-18.8,9.89-39.6,26.63-49"/><path class="cls-5" d="M-31.72,324.78a534.08,534.08,0,0,0,128.35,1.66c10.35-1.12,20.94-2.62,30.11-7.56,12.45-6.7,20.83-18.89,28.72-30.63l19.77-29.39c7.58-11.28,15.33-22.74,26-31.17,14-11.06,31.71-16,47.6-24.06a130,130,0,0,0,54-51.79c26.5-47.13,22.84-109.3,58.53-149.91"/><path class="cls-5" d="M384.09.78c-24.25,21.85-24.71,59.16-33.51,88.35-9.81,32.54-23.94,65.25-45.05,92.57-22.57,29.21-53.07,40.89-82.85,60.23-31.2,20.27-53.42,50.61-71,82.88-16.71,30.71-26.32,74.06-55.8,94.86C57.07,447.06,1.32,436.31-39.29,461"/><path class="cls-4" d="M1091.86-232.06c27.92,11.31,56.21,31.21,68.24,59.82,18.4,43.7-19.55,84-29.57,124.66-17.53,71.15,32.5,115,80.53,157.8,55.06,49.05-10.1,103.45-40.61,143.16-73.76,96,29,203.36,126.77,214.67,64.51,7.45,126.79-14.25,191.11-7.74a232.44,232.44,0,0,1,127.18,54.56c8.93,7.68,18,18.81,14.29,30"/><path class="cls-6" d="M1659.29,281c-25.81,30.24-61.14,51.41-101.57,52.77-51,1.72-86.58-8.07-129.9,25.24-43.6,33.54-77.54,76.48-138.3,72.68-56.68-3.54-117.48-52.05-110.46-113.36,6.68-58.26,60.29-94.61,89.1-141.53,13.29-21.63,19.75-47.81,7.1-71.33-18.44-34.25-61.84-42.62-84.62-72.81-23.12-30.65-28.8-74.34-23.73-111.42,5.21-38.1,29.58-67.36,70.47-62.07,68.14,8.82,132.29,43.06,191.06,76.8C1491.5-27.88,1548,16.65,1601.05,66.1c29.68,27.64,64.58,54,81.51,92.06,17.1,38.45,7,83.48-18,116.22C1662.91,276.59,1661.14,278.78,1659.29,281Z"/><path class="cls-6" d="M1193.08-61c5.26-34.32,27.66-60.55,64.78-55.88,62,7.77,120.64,38.81,174,69.69q6.51,3.76,12.91,7.67a717.34,717.34,0,0,1,84.38,60.43C1549,37.36,1568,54.65,1586.37,72.6c26,25.37,56.28,49.62,71.16,84.19s5.91,75.06-16.39,104.65q-2.25,3-4.74,5.93c-23.07,27.31-54.63,46.56-90.77,48.16-45.56,2-77.53-6.31-116.5,23.54-39.59,30.24-70.53,68.25-125.09,64.41-51-3.65-105.36-47.64-99-103,6.1-52.9,53.89-86.37,79.3-129.16,11.72-19.72,17.31-43.46,5.8-64.81-8.17-15.16-21.68-24.82-35.81-33.92s-29.11-17.72-39.59-30.87c-.43-.54-.85-1.08-1.26-1.63C1192.6,12.11,1187.94-27.61,1193.08-61Z"/><path class="cls-6" d="M1219.25-43.26C1224.56-73.81,1245-97,1278.34-93c55.94,6.72,109,34.56,156.92,62.58q5.85,3.42,11.6,7a585.54,585.54,0,0,1,75.2,55.24c17.45,15.16,33.84,31,49.63,47.28,22.29,23.09,48,45.2,60.82,76.3,12.72,30.81,4.86,66.65-14.82,93.08-1.32,1.78-2.72,3.54-4.18,5.29-20.34,24.39-48.12,41.72-80,43.55-40.14,2.28-68.49-4.54-103.1,21.85-35.57,26.95-63.52,60-111.88,56.15-45.27-3.77-93.24-43.24-87.5-92.72,5.52-47.55,47.49-78.15,69.5-116.8,10.16-17.81,14.86-39.12,4.51-58.28-7.35-13.61-19.42-22.39-32.1-30.65s-26.11-16-35.49-27.92c-.38-.49-.76-1-1.12-1.47C1217.68,22.26,1214.05-13.5,1219.25-43.26Z"/><path class="cls-6" d="M1245.42-25.48c5.36-26.78,23.83-46.94,53.4-43.52,49.84,5.68,97.34,30.31,139.84,55.47q5.21,3.09,10.3,6.28a464.06,464.06,0,0,1,66,50c15,13.83,28.85,28.11,42,42.82,18.6,20.82,39.68,40.79,50.47,68.42,10.54,27,3.82,58.25-13.24,81.51-1.15,1.56-2.35,3.12-3.62,4.66-17.6,21.45-41.61,36.87-69.17,38.93-34.73,2.56-59.38-2.68-89.7,20.16-31.5,23.73-56.51,51.91-98.67,47.88-39.58-3.78-81.11-38.83-76-82.4,5-42.18,41.1-69.92,59.71-104.44,8.59-15.89,12.42-34.76,3.21-51.75-6.53-12-17.16-20-28.39-27.37s-23.11-14.38-31.38-25c-.33-.43-.66-.87-1-1.31C1242.77,32.41,1240.15.62,1245.42-25.48Z"/><path class="cls-6" d="M1271.59-7.71c5.41-23,21.91-40.13,47.71-37.33C1363-40.41,1405-19,1442.07,3.33q4.54,2.73,9,5.57a351.47,351.47,0,0,1,56.83,44.85,447,447,0,0,1,34.44,38.37c14.91,18.54,31.4,36.35,40.14,60.54,8.36,23.14,2.76,49.83-11.67,69.93-1,1.35-2,2.7-3.06,4-14.86,18.52-35.1,32-58.37,34.31-29.31,2.84-50.32-.89-76.3,18.47-27.46,20.46-49.51,43.72-85.45,39.61-33.89-3.86-69-34.42-64.56-72.08,4.38-36.82,34.7-61.69,49.91-92.07,7-14,10-30.41,1.92-45.23-5.71-10.5-14.9-17.5-24.68-24.09s-20.12-12.7-27.27-22c-.29-.38-.58-.76-.86-1.15C1267.85,42.57,1266.25,14.74,1271.59-7.71Z"/><path class="cls-6" d="M1297.77,10.07c5.45-19.22,20-33.33,42-31.15,37.64,3.58,74,21.82,105.7,41.26q3.88,2.4,7.67,4.88c17.63,11.58,34,24.92,47.64,39.65a308.4,308.4,0,0,1,26.85,33.91c11.22,16.27,23.11,31.91,29.79,52.66,6.21,19.28,1.72,41.42-10.08,58.36-.8,1.14-1.63,2.28-2.5,3.4-12.14,15.59-28.6,27.17-47.58,29.7-23.9,3.12-41.26.89-62.9,16.77-23.43,17.18-42.5,35.52-72.24,31.35-28.19-4-56.88-30-53.08-61.77,3.8-31.45,28.3-53.45,40.11-79.7,5.45-12.07,7.53-26.06.62-38.71-4.88-8.94-12.64-15.06-21-20.81s-17.13-11-23.17-19.07c-.24-.32-.48-.66-.72-1C1292.94,52.72,1292.36,28.85,1297.77,10.07Z"/><path class="cls-6" d="M1323.94,27.85c5.54-15.44,18.06-26.48,36.32-25,31.53,2.61,62.39,17.57,88.63,34.15q3.22,2.05,6.36,4.19c14.59,9.93,28.08,21.55,38.45,34.45A192.76,192.76,0,0,1,1513,105.13c7.53,14,14.84,27.42,19.45,44.77,4.09,15.4.67,33-8.51,46.8-.62.92-1.27,1.84-1.94,2.76-9.4,12.66-22.08,22.35-36.78,25.08-18.48,3.44-32.2,2.68-49.51,15.08-19.39,13.9-35.49,27.32-59,23.08-22.5-4-44.76-25.61-41.6-51.45,3.23-26.09,21.9-45.22,30.31-67.34,3.89-10.15,5.08-21.71-.67-32.18-4.06-7.38-10.38-12.62-17.25-17.53s-14.14-9.36-19.06-16.12c-.2-.27-.4-.55-.59-.83C1318,62.87,1318.5,43,1323.94,27.85Z"/><path class="cls-6" d="M1350.11,45.62C1355.7,34,1366.26,26,1380.74,26.84c25.44,1.56,50.74,13.32,71.55,27.05,1.72,1.13,3.41,2.3,5.06,3.48,11.55,8.3,22.11,18.19,29.26,29.26a106,106,0,0,1,11.67,25,255.65,255.65,0,0,1,9.1,36.9,51.55,51.55,0,0,1-6.93,35.22q-.66,1.06-1.38,2.13c-6.67,9.73-15.57,17.5-26,20.46-13.06,3.73-23.16,4.45-36.11,13.39-15.38,10.61-28.49,19.1-45.81,14.82-16.81-4.16-32.64-21.21-30.12-41.14,2.65-20.72,15.51-37,20.51-55,2.32-8.24,2.64-17.36-2-25.65-3.24-5.83-8.12-10.19-13.53-14.26s-11.15-7.69-15-13.16l-.45-.68C1343.11,73,1344.6,57.1,1350.11,45.62Z"/><path class="cls-6" d="M1376.28,63.4a29,29,0,0,1,24.94-12.6c19.34.5,39.1,9.08,54.48,19.94q1.92,1.37,3.75,2.79c8.52,6.65,16.13,14.83,20.07,24.06a53,53,0,0,1,4.08,20.55c.16,9.43-1.46,18.28-1.24,29A50,50,0,0,1,1477,170.8c-.26.5-.53,1-.82,1.49-3.93,6.81-9,12.65-15.18,15.86-7.64,4-14.14,6.19-22.71,11.69-11.38,7.3-21.48,10.84-32.59,6.55s-20.52-16.8-18.66-30.82c2.08-15.36,9.12-28.76,10.72-42.6.75-6.33.2-13-3.26-19.13a39.62,39.62,0,0,0-9.82-11c-3.88-3.15-8.16-6-10.85-10.21l-.32-.52C1368.19,83.17,1370.7,71.22,1376.28,63.4Z"/><path class="cls-6" d="M1457.33,145.78c-4.13,10.89-6.17,28.18-17.73,34.17-15.52,8-28.91-6.61-26.56-22.22,2.66-17.66,4.4-37-9.74-50.54-2.4-2.29-5.17-4.34-6.75-7.26-3.41-6.29.12-14.53,5.9-18.75,17.38-12.68,44.3-5,59.1,8.5,5.48,5,10.11,11.49,10.88,18.87C1473.93,122.79,1462,133.37,1457.33,145.78Z"/><path class="cls-6" d="M1628.77,356.55a602.33,602.33,0,0,0-84.84-5.92c-45.36.1-92.69,8.32-127.34,40-4.37,4-8.42,8.49-10.94,13.84-19.16,40.68,52,38.36,73.15,37.92a214,214,0,0,1,58.44,6.55c29.82,7.8,57.84,22.9,85,37,18.55,9.61,36,18.34,57.6,15.14,38.07-5.62,79.45-54.57,74.06-94.45-3.94-29.15-46-34.38-68.75-39.64Q1657.26,360.57,1628.77,356.55Z"/><path class="cls-6" d="M1448.47,391.81c28.43-25.27,67-31.91,104.17-31.75a492.76,492.76,0,0,1,69.26,5.2q23.24,3.38,46,8.8c18.67,4.48,52.76,9,56.12,32.59,4.58,32.3-28.51,71.72-59.2,76.92a53.44,53.44,0,0,1-25.06-1.81c-7.92-2.42-15.5-6.25-23.31-10.24-22.58-11.58-45.84-23.86-70.56-30.21-1.84-.48-3.7-.92-5.56-1.33a209.75,209.75,0,0,0-42.71-4.48c-17.75-.16-75,.46-58.43-32.5C1441.39,398.67,1444.81,395.06,1448.47,391.81Z"/><rect class="cls-1" x="651.93" y="-351.49" width="816.79" height="1225.18" transform="translate(271.66 1016.39) rotate(-57.6)"/></g></g></svg>